<mxfile host="app.diagrams.net" modified="2021-08-15T19:59:41.808Z" agent="5.0 (X11; Linux x86_64) AppleWebKit/537.36 (KHTML, like Gecko) Chrome/92.0.4515.131 Safari/537.36" etag="x4BBFkH9TEauPlNu_bPR" version="14.9.6" type="github">
  <diagram id="R2lEEEUBdFMjLlhIrx00" name="Page-1">
    <mxGraphModel dx="1102" dy="596" grid="1" gridSize="10" guides="1" tooltips="1" connect="1" arrows="1" fold="1" page="1" pageScale="1" pageWidth="850" pageHeight="1100" math="0" shadow="0" extFonts="Permanent Marker^https://fonts.googleapis.com/css?family=Permanent+Marker">
      <root>
        <mxCell id="0" />
        <mxCell id="1" parent="0" />
        <mxCell id="lRTCh0KjeCy6rbM3OG8G-1" value="NOTAÇÃO JAMES MARTIN" style="text;html=1;strokeColor=none;fillColor=none;align=left;verticalAlign=middle;whiteSpace=wrap;rounded=0;fontSize=24;" vertex="1" parent="1">
          <mxGeometry x="10" y="20" width="310" height="30" as="geometry" />
        </mxCell>
        <mxCell id="lRTCh0KjeCy6rbM3OG8G-2" value="DER - SISTEMA ACADÊMICO" style="text;html=1;strokeColor=none;fillColor=none;align=left;verticalAlign=middle;whiteSpace=wrap;rounded=0;fontSize=24;" vertex="1" parent="1">
          <mxGeometry x="10" y="540" width="350" height="30" as="geometry" />
        </mxCell>
        <mxCell id="lRTCh0KjeCy6rbM3OG8G-3" value="" style="swimlane;childLayout=stackLayout;horizontal=1;startSize=30;horizontalStack=0;rounded=0;fontSize=14;fontStyle=0;strokeWidth=2;resizeParent=0;resizeLast=1;shadow=0;dashed=0;align=center;aspect=fixed;" vertex="1" parent="1">
          <mxGeometry x="80" y="80" width="140" height="105" as="geometry" />
        </mxCell>
        <mxCell id="lRTCh0KjeCy6rbM3OG8G-5" value="&lt;font style=&quot;font-size: 14px;&quot;&gt;ENTIDADE&lt;/font&gt;" style="text;html=1;strokeColor=none;fillColor=none;align=left;verticalAlign=middle;whiteSpace=wrap;rounded=0;fontSize=14;fontStyle=1" vertex="1" parent="1">
          <mxGeometry x="230" y="110" width="100" height="20" as="geometry" />
        </mxCell>
        <mxCell id="lRTCh0KjeCy6rbM3OG8G-6" value="" style="swimlane;childLayout=stackLayout;horizontal=1;startSize=30;horizontalStack=0;rounded=1;fontSize=14;fontStyle=0;strokeWidth=2;resizeParent=0;resizeLast=1;shadow=0;dashed=0;align=center;aspect=fixed;" vertex="1" parent="1">
          <mxGeometry x="80" y="210" width="140" height="105" as="geometry" />
        </mxCell>
        <mxCell id="lRTCh0KjeCy6rbM3OG8G-7" value="&lt;font style=&quot;font-size: 14px&quot;&gt;ENTIDADE FRACA&lt;/font&gt;" style="text;html=1;strokeColor=none;fillColor=none;align=left;verticalAlign=middle;whiteSpace=wrap;rounded=0;fontSize=14;fontStyle=1" vertex="1" parent="1">
          <mxGeometry x="230" y="240" width="140" height="20" as="geometry" />
        </mxCell>
        <mxCell id="lRTCh0KjeCy6rbM3OG8G-8" value="" style="endArrow=none;html=1;rounded=0;strokeWidth=2;" edge="1" parent="1">
          <mxGeometry relative="1" as="geometry">
            <mxPoint x="80" y="360" as="sourcePoint" />
            <mxPoint x="220" y="360" as="targetPoint" />
          </mxGeometry>
        </mxCell>
        <mxCell id="lRTCh0KjeCy6rbM3OG8G-9" value="&lt;font style=&quot;font-size: 14px&quot;&gt;RELACIONAMENTO&lt;/font&gt;" style="text;html=1;strokeColor=none;fillColor=none;align=left;verticalAlign=middle;whiteSpace=wrap;rounded=0;fontSize=14;fontStyle=1" vertex="1" parent="1">
          <mxGeometry x="230" y="349" width="150" height="20" as="geometry" />
        </mxCell>
        <mxCell id="lRTCh0KjeCy6rbM3OG8G-13" value="" style="swimlane;childLayout=stackLayout;horizontal=1;startSize=30;horizontalStack=0;rounded=0;fontSize=14;fontStyle=0;strokeWidth=2;resizeParent=0;resizeLast=1;shadow=0;dashed=0;align=center;aspect=fixed;" vertex="1" parent="1">
          <mxGeometry x="445" y="80" width="140" height="105" as="geometry" />
        </mxCell>
        <mxCell id="lRTCh0KjeCy6rbM3OG8G-16" value="XXXXXXXXXXXXXXXX" style="text;strokeColor=none;fillColor=none;spacingLeft=4;spacingRight=4;overflow=hidden;rotatable=0;points=[[0,0.5],[1,0.5]];portConstraint=eastwest;fontSize=12;rounded=1;" vertex="1" parent="lRTCh0KjeCy6rbM3OG8G-13">
          <mxGeometry y="30" width="140" height="75" as="geometry" />
        </mxCell>
        <mxCell id="lRTCh0KjeCy6rbM3OG8G-14" value="&lt;font style=&quot;font-size: 14px&quot;&gt;ATRIBUTO&lt;/font&gt;" style="text;html=1;strokeColor=none;fillColor=none;align=left;verticalAlign=middle;whiteSpace=wrap;rounded=0;fontSize=14;fontStyle=1" vertex="1" parent="1">
          <mxGeometry x="595" y="110" width="100" height="20" as="geometry" />
        </mxCell>
        <mxCell id="lRTCh0KjeCy6rbM3OG8G-17" value="" style="swimlane;childLayout=stackLayout;horizontal=1;startSize=30;horizontalStack=0;rounded=0;fontSize=14;fontStyle=0;strokeWidth=2;resizeParent=0;resizeLast=1;shadow=0;dashed=0;align=center;aspect=fixed;" vertex="1" parent="1">
          <mxGeometry x="445" y="210" width="140" height="105" as="geometry" />
        </mxCell>
        <mxCell id="lRTCh0KjeCy6rbM3OG8G-18" value="* XXXXXXXXXXXXXXX" style="text;strokeColor=none;fillColor=none;spacingLeft=4;spacingRight=4;overflow=hidden;rotatable=0;points=[[0,0.5],[1,0.5]];portConstraint=eastwest;fontSize=12;rounded=1;" vertex="1" parent="lRTCh0KjeCy6rbM3OG8G-17">
          <mxGeometry y="30" width="140" height="75" as="geometry" />
        </mxCell>
        <mxCell id="lRTCh0KjeCy6rbM3OG8G-19" value="&lt;font style=&quot;font-size: 14px&quot;&gt;ATRIBUTO CHAVE&lt;/font&gt;" style="text;html=1;strokeColor=none;fillColor=none;align=left;verticalAlign=middle;whiteSpace=wrap;rounded=0;fontSize=14;fontStyle=1" vertex="1" parent="1">
          <mxGeometry x="595" y="240" width="145" height="20" as="geometry" />
        </mxCell>
        <mxCell id="lRTCh0KjeCy6rbM3OG8G-21" value="" style="endArrow=ERzeroToOne;html=1;rounded=0;strokeWidth=2;endFill=1;" edge="1" parent="1">
          <mxGeometry relative="1" as="geometry">
            <mxPoint x="445" y="376" as="sourcePoint" />
            <mxPoint x="585" y="376" as="targetPoint" />
          </mxGeometry>
        </mxCell>
        <mxCell id="lRTCh0KjeCy6rbM3OG8G-22" value="" style="endArrow=ERmandOne;html=1;rounded=0;strokeWidth=2;endFill=0;" edge="1" parent="1">
          <mxGeometry relative="1" as="geometry">
            <mxPoint x="445" y="396" as="sourcePoint" />
            <mxPoint x="585" y="396" as="targetPoint" />
          </mxGeometry>
        </mxCell>
        <mxCell id="lRTCh0KjeCy6rbM3OG8G-23" value="" style="endArrow=ERmany;html=1;rounded=0;strokeWidth=2;endFill=0;" edge="1" parent="1">
          <mxGeometry relative="1" as="geometry">
            <mxPoint x="445" y="416" as="sourcePoint" />
            <mxPoint x="585" y="416" as="targetPoint" />
          </mxGeometry>
        </mxCell>
        <mxCell id="lRTCh0KjeCy6rbM3OG8G-24" value="" style="endArrow=ERzeroToMany;html=1;rounded=0;strokeWidth=2;endFill=1;" edge="1" parent="1">
          <mxGeometry relative="1" as="geometry">
            <mxPoint x="445" y="436" as="sourcePoint" />
            <mxPoint x="585" y="436" as="targetPoint" />
          </mxGeometry>
        </mxCell>
        <mxCell id="lRTCh0KjeCy6rbM3OG8G-25" value="" style="endArrow=ERoneToMany;html=1;rounded=0;strokeWidth=2;endFill=0;" edge="1" parent="1">
          <mxGeometry relative="1" as="geometry">
            <mxPoint x="445" y="456" as="sourcePoint" />
            <mxPoint x="585" y="456" as="targetPoint" />
          </mxGeometry>
        </mxCell>
        <mxCell id="lRTCh0KjeCy6rbM3OG8G-26" value="" style="endArrow=ERone;html=1;rounded=0;strokeWidth=2;endFill=0;" edge="1" parent="1">
          <mxGeometry relative="1" as="geometry">
            <mxPoint x="445" y="358" as="sourcePoint" />
            <mxPoint x="585" y="358" as="targetPoint" />
          </mxGeometry>
        </mxCell>
        <mxCell id="lRTCh0KjeCy6rbM3OG8G-27" value="&lt;font style=&quot;font-size: 14px&quot;&gt;CARDINALIDADE&lt;/font&gt;" style="text;html=1;strokeColor=none;fillColor=none;align=left;verticalAlign=middle;whiteSpace=wrap;rounded=0;fontSize=14;fontStyle=1" vertex="1" parent="1">
          <mxGeometry x="600" y="390" width="150" height="20" as="geometry" />
        </mxCell>
        <mxCell id="lRTCh0KjeCy6rbM3OG8G-28" value="Faculdade" style="swimlane;childLayout=stackLayout;horizontal=1;startSize=30;horizontalStack=0;rounded=0;fontSize=14;fontStyle=0;strokeWidth=2;resizeParent=0;resizeLast=1;shadow=0;dashed=0;align=center;aspect=fixed;" vertex="1" parent="1">
          <mxGeometry x="185" y="600" width="140" height="105" as="geometry" />
        </mxCell>
        <mxCell id="lRTCh0KjeCy6rbM3OG8G-49" value="* CNPJ&#xa;Tipo_Logradouro&#xa;Nome_Logradouro&#xa;Numero_Logradouro" style="text;strokeColor=none;fillColor=none;spacingLeft=4;spacingRight=4;overflow=hidden;rotatable=0;points=[[0,0.5],[1,0.5]];portConstraint=eastwest;fontSize=12;rounded=1;" vertex="1" parent="lRTCh0KjeCy6rbM3OG8G-28">
          <mxGeometry y="30" width="140" height="75" as="geometry" />
        </mxCell>
        <mxCell id="lRTCh0KjeCy6rbM3OG8G-29" value="Curso" style="swimlane;childLayout=stackLayout;horizontal=1;startSize=30;horizontalStack=0;rounded=0;fontSize=14;fontStyle=0;strokeWidth=2;resizeParent=0;resizeLast=1;shadow=0;dashed=0;align=center;aspect=fixed;" vertex="1" parent="1">
          <mxGeometry x="580" y="600" width="140" height="105" as="geometry" />
        </mxCell>
        <mxCell id="lRTCh0KjeCy6rbM3OG8G-50" value="Nome" style="text;strokeColor=none;fillColor=none;spacingLeft=4;spacingRight=4;overflow=hidden;rotatable=0;points=[[0,0.5],[1,0.5]];portConstraint=eastwest;fontSize=12;rounded=1;" vertex="1" parent="lRTCh0KjeCy6rbM3OG8G-29">
          <mxGeometry y="30" width="140" height="75" as="geometry" />
        </mxCell>
        <mxCell id="lRTCh0KjeCy6rbM3OG8G-30" value="Disciplina" style="swimlane;childLayout=stackLayout;horizontal=1;startSize=30;horizontalStack=0;rounded=0;fontSize=14;fontStyle=0;strokeWidth=2;resizeParent=0;resizeLast=1;shadow=0;dashed=0;align=center;" vertex="1" parent="1">
          <mxGeometry x="580" y="800" width="140" height="80" as="geometry" />
        </mxCell>
        <mxCell id="lRTCh0KjeCy6rbM3OG8G-44" value="Nome&#xa;Carga_Horária" style="text;strokeColor=none;fillColor=none;spacingLeft=4;spacingRight=4;overflow=hidden;rotatable=0;points=[[0,0.5],[1,0.5]];portConstraint=eastwest;fontSize=12;rounded=1;" vertex="1" parent="lRTCh0KjeCy6rbM3OG8G-30">
          <mxGeometry y="30" width="140" height="50" as="geometry" />
        </mxCell>
        <mxCell id="lRTCh0KjeCy6rbM3OG8G-31" value="Pessoa" style="swimlane;childLayout=stackLayout;horizontal=1;startSize=30;horizontalStack=0;rounded=0;fontSize=14;fontStyle=0;strokeWidth=2;resizeParent=0;resizeLast=1;shadow=0;dashed=0;align=center;" vertex="1" parent="1">
          <mxGeometry x="185" y="770" width="140" height="80" as="geometry" />
        </mxCell>
        <mxCell id="lRTCh0KjeCy6rbM3OG8G-41" value="* Matrícula&#xa;Nome" style="text;strokeColor=none;fillColor=none;spacingLeft=4;spacingRight=4;overflow=hidden;rotatable=0;points=[[0,0.5],[1,0.5]];portConstraint=eastwest;fontSize=12;rounded=1;" vertex="1" parent="lRTCh0KjeCy6rbM3OG8G-31">
          <mxGeometry y="30" width="140" height="50" as="geometry" />
        </mxCell>
        <mxCell id="lRTCh0KjeCy6rbM3OG8G-32" value="frequenta" style="fontSize=12;html=1;endArrow=ERzeroToMany;endFill=1;startArrow=ERzeroToMany;strokeWidth=2;entryX=0.5;entryY=1;entryDx=0;entryDy=0;exitX=0.5;exitY=0;exitDx=0;exitDy=0;" edge="1" parent="1" source="lRTCh0KjeCy6rbM3OG8G-31" target="lRTCh0KjeCy6rbM3OG8G-28">
          <mxGeometry width="100" height="100" relative="1" as="geometry">
            <mxPoint x="370" y="840" as="sourcePoint" />
            <mxPoint x="470" y="740" as="targetPoint" />
          </mxGeometry>
        </mxCell>
        <mxCell id="lRTCh0KjeCy6rbM3OG8G-33" value="" style="edgeStyle=entityRelationEdgeStyle;fontSize=12;html=1;endArrow=ERzeroToMany;endFill=1;strokeWidth=2;exitX=1;exitY=0.5;exitDx=0;exitDy=0;entryX=0;entryY=0.5;entryDx=0;entryDy=0;" edge="1" parent="1" source="lRTCh0KjeCy6rbM3OG8G-28" target="lRTCh0KjeCy6rbM3OG8G-29">
          <mxGeometry width="100" height="100" relative="1" as="geometry">
            <mxPoint x="390" y="730" as="sourcePoint" />
            <mxPoint x="490" y="630" as="targetPoint" />
          </mxGeometry>
        </mxCell>
        <mxCell id="lRTCh0KjeCy6rbM3OG8G-35" value="&amp;nbsp;oferece&amp;nbsp;" style="edgeLabel;html=1;align=center;verticalAlign=middle;resizable=0;points=[];fontSize=14;" vertex="1" connectable="0" parent="lRTCh0KjeCy6rbM3OG8G-33">
          <mxGeometry x="-0.0353" relative="1" as="geometry">
            <mxPoint y="1" as="offset" />
          </mxGeometry>
        </mxCell>
        <mxCell id="lRTCh0KjeCy6rbM3OG8G-36" value="possui" style="fontSize=12;html=1;endArrow=ERzeroToMany;endFill=1;strokeWidth=2;exitX=0.5;exitY=1;exitDx=0;exitDy=0;entryX=0.5;entryY=0;entryDx=0;entryDy=0;startArrow=ERone;startFill=0;" edge="1" parent="1" source="lRTCh0KjeCy6rbM3OG8G-29" target="lRTCh0KjeCy6rbM3OG8G-30">
          <mxGeometry width="100" height="100" relative="1" as="geometry">
            <mxPoint x="710" y="830" as="sourcePoint" />
            <mxPoint x="810" y="730" as="targetPoint" />
          </mxGeometry>
        </mxCell>
        <mxCell id="lRTCh0KjeCy6rbM3OG8G-47" style="edgeStyle=orthogonalEdgeStyle;rounded=0;orthogonalLoop=1;jettySize=auto;html=1;entryX=0.321;entryY=1;entryDx=0;entryDy=0;entryPerimeter=0;fontSize=14;startArrow=ERmandOne;startFill=0;endArrow=ERmandOne;endFill=0;strokeWidth=2;" edge="1" parent="1" source="lRTCh0KjeCy6rbM3OG8G-37" target="lRTCh0KjeCy6rbM3OG8G-41">
          <mxGeometry relative="1" as="geometry" />
        </mxCell>
        <mxCell id="lRTCh0KjeCy6rbM3OG8G-37" value="Aluno" style="swimlane;childLayout=stackLayout;horizontal=1;startSize=30;horizontalStack=0;rounded=0;fontSize=14;fontStyle=0;strokeWidth=2;resizeParent=0;resizeLast=1;shadow=0;dashed=0;align=center;" vertex="1" parent="1">
          <mxGeometry x="120" y="905" width="140" height="85" as="geometry" />
        </mxCell>
        <mxCell id="lRTCh0KjeCy6rbM3OG8G-42" value="Data_Nascimento&#xa;Telefones" style="text;strokeColor=none;fillColor=none;spacingLeft=4;spacingRight=4;overflow=hidden;rotatable=0;points=[[0,0.5],[1,0.5]];portConstraint=eastwest;fontSize=12;rounded=1;" vertex="1" parent="lRTCh0KjeCy6rbM3OG8G-37">
          <mxGeometry y="30" width="140" height="55" as="geometry" />
        </mxCell>
        <mxCell id="lRTCh0KjeCy6rbM3OG8G-48" style="edgeStyle=orthogonalEdgeStyle;rounded=0;orthogonalLoop=1;jettySize=auto;html=1;entryX=0.779;entryY=1;entryDx=0;entryDy=0;entryPerimeter=0;fontSize=14;startArrow=ERmandOne;startFill=0;endArrow=ERmandOne;endFill=0;strokeWidth=2;" edge="1" parent="1" source="lRTCh0KjeCy6rbM3OG8G-38" target="lRTCh0KjeCy6rbM3OG8G-41">
          <mxGeometry relative="1" as="geometry" />
        </mxCell>
        <mxCell id="lRTCh0KjeCy6rbM3OG8G-38" value="Professor" style="swimlane;childLayout=stackLayout;horizontal=1;startSize=30;horizontalStack=0;rounded=0;fontSize=14;fontStyle=0;strokeWidth=2;resizeParent=0;resizeLast=1;shadow=0;dashed=0;align=center;" vertex="1" parent="1">
          <mxGeometry x="280" y="905" width="140" height="85" as="geometry" />
        </mxCell>
        <mxCell id="lRTCh0KjeCy6rbM3OG8G-43" value="Titulação" style="text;strokeColor=none;fillColor=none;spacingLeft=4;spacingRight=4;overflow=hidden;rotatable=0;points=[[0,0.5],[1,0.5]];portConstraint=eastwest;fontSize=12;rounded=1;" vertex="1" parent="lRTCh0KjeCy6rbM3OG8G-38">
          <mxGeometry y="30" width="140" height="55" as="geometry" />
        </mxCell>
        <mxCell id="lRTCh0KjeCy6rbM3OG8G-39" value="" style="edgeStyle=orthogonalEdgeStyle;fontSize=12;html=1;endArrow=ERzeroToMany;endFill=1;strokeWidth=2;exitX=1;exitY=0.5;exitDx=0;exitDy=0;entryX=0.5;entryY=1;entryDx=0;entryDy=0;startArrow=ERone;startFill=0;" edge="1" parent="1" source="lRTCh0KjeCy6rbM3OG8G-38" target="lRTCh0KjeCy6rbM3OG8G-30">
          <mxGeometry width="100" height="100" relative="1" as="geometry">
            <mxPoint x="610" y="1020" as="sourcePoint" />
            <mxPoint x="710" y="920" as="targetPoint" />
          </mxGeometry>
        </mxCell>
        <mxCell id="lRTCh0KjeCy6rbM3OG8G-40" value="&amp;nbsp;ministra&amp;nbsp;" style="edgeLabel;html=1;align=center;verticalAlign=middle;resizable=0;points=[];fontSize=14;" vertex="1" connectable="0" parent="lRTCh0KjeCy6rbM3OG8G-39">
          <mxGeometry x="-0.0103" y="-2" relative="1" as="geometry">
            <mxPoint y="1" as="offset" />
          </mxGeometry>
        </mxCell>
        <mxCell id="lRTCh0KjeCy6rbM3OG8G-45" value="coordena" style="edgeStyle=orthogonalEdgeStyle;fontSize=12;html=1;endArrow=ERzeroToOne;startArrow=ERmandOne;strokeWidth=2;exitX=0.75;exitY=0;exitDx=0;exitDy=0;entryX=0;entryY=0.75;entryDx=0;entryDy=0;" edge="1" parent="1" source="lRTCh0KjeCy6rbM3OG8G-38" target="lRTCh0KjeCy6rbM3OG8G-29">
          <mxGeometry x="-0.3098" width="100" height="100" relative="1" as="geometry">
            <mxPoint x="390" y="850" as="sourcePoint" />
            <mxPoint x="490" y="750" as="targetPoint" />
            <mxPoint as="offset" />
          </mxGeometry>
        </mxCell>
      </root>
    </mxGraphModel>
  </diagram>
</mxfile>
